0
SECTION
2
HEADER
0
ENDSEC
0
SECTION
2
ENTITIES
0
LINE
8
ROOM_REF
10
0
20
0
30
0
11
1700
21
0
31
0

0
LINE
8
ROOM_REF
10
1700
20
0
30
0
11
1700
21
2640
31
0

0
LINE
8
ROOM_REF
10
1700
20
2640
30
0
11
0
21
2640
31
0

0
LINE
8
ROOM_REF
10
0
20
2640
30
0
11
0
21
0
31
0

0
TEXT
8
ROOM_TEXT
10
850.0
20
1320.0
30
0
40
120
1
8 4.49 m2

0
LINE
8
ROOM_REF
10
1700
20
0
30
0
11
5900
21
0
31
0

0
LINE
8
ROOM_REF
10
5900
20
0
30
0
11
5900
21
3140
31
0

0
LINE
8
ROOM_REF
10
5900
20
3140
30
0
11
1700
21
3140
31
0

0
LINE
8
ROOM_REF
10
1700
20
3140
30
0
11
1700
21
0
31
0

0
TEXT
8
ROOM_TEXT
10
3800.0
20
1570.0
30
0
40
120
1
2 12.23 m2

0
LINE
8
ROOM_REF
10
5900
20
0
30
0
11
7905
21
0
31
0

0
LINE
8
ROOM_REF
10
7905
20
0
30
0
11
7905
21
2200
31
0

0
LINE
8
ROOM_REF
10
7905
20
2200
30
0
11
5900
21
2200
31
0

0
LINE
8
ROOM_REF
10
5900
20
2200
30
0
11
5900
21
0
31
0

0
TEXT
8
ROOM_TEXT
10
6902.5
20
1100.0
30
0
40
120
1
7 3.66 m2

0
LINE
8
ROOM_REF
10
7905
20
0
30
0
11
13710
21
0
31
0

0
LINE
8
ROOM_REF
10
13710
20
0
30
0
11
13710
21
3250
31
0

0
LINE
8
ROOM_REF
10
13710
20
3250
30
0
11
7905
21
3250
31
0

0
LINE
8
ROOM_REF
10
7905
20
3250
30
0
11
7905
21
0
31
0

0
TEXT
8
ROOM_TEXT
10
10807.5
20
1625.0
30
0
40
120
1
5 19.09 m2

0
LINE
8
ROOM_REF
10
0
20
3140
30
0
11
4840
21
3140
31
0

0
LINE
8
ROOM_REF
10
4840
20
3140
30
0
11
4840
21
6140
31
0

0
LINE
8
ROOM_REF
10
4840
20
6140
30
0
11
0
21
6140
31
0

0
LINE
8
ROOM_REF
10
0
20
6140
30
0
11
0
21
3140
31
0

0
TEXT
8
ROOM_TEXT
10
2420.0
20
4640.0
30
0
40
120
1
4 13.95 m2

0
LINE
8
ROOM_REF
10
0
20
6140
30
0
11
3460
21
6140
31
0

0
LINE
8
ROOM_REF
10
3460
20
6140
30
0
11
3460
21
9140
31
0

0
LINE
8
ROOM_REF
10
3460
20
9140
30
0
11
0
21
9140
31
0

0
LINE
8
ROOM_REF
10
0
20
9140
30
0
11
0
21
6140
31
0

0
TEXT
8
ROOM_TEXT
10
1730.0
20
7640.0
30
0
40
120
1
3 10.59 m2

0
LINE
8
ROOM_REF
10
3460
20
7240
30
0
11
6120
21
7240
31
0

0
LINE
8
ROOM_REF
10
6120
20
7240
30
0
11
6120
21
9140
31
0

0
LINE
8
ROOM_REF
10
6120
20
9140
30
0
11
3460
21
9140
31
0

0
LINE
8
ROOM_REF
10
3460
20
9140
30
0
11
3460
21
7240
31
0

0
TEXT
8
ROOM_TEXT
10
4790.0
20
8190.0
30
0
40
120
1
6 4.48 m2

0
LINE
8
GRID
10
0
20
-250
30
0
11
0
21
9400
31
0

0
TEXT
8
GRID_TEXT
10
30
20
-500
30
0
40
90
1
X0

0
LINE
8
GRID
10
1700
20
-250
30
0
11
1700
21
9400
31
0

0
TEXT
8
GRID_TEXT
10
1730
20
-500
30
0
40
90
1
X_BALCONY_R

0
LINE
8
GRID
10
5900
20
-250
30
0
11
5900
21
9400
31
0

0
TEXT
8
GRID_TEXT
10
5930
20
-500
30
0
40
90
1
X_KITCHEN_R

0
LINE
8
GRID
10
7905
20
-250
30
0
11
7905
21
9400
31
0

0
TEXT
8
GRID_TEXT
10
7935
20
-500
30
0
40
90
1
X_BATH7_R

0
LINE
8
GRID
10
13710
20
-250
30
0
11
13710
21
9400
31
0

0
TEXT
8
GRID_TEXT
10
13740
20
-500
30
0
40
90
1
X_RIGHT

0
LINE
8
GRID
10
3460
20
-250
30
0
11
3460
21
9400
31
0

0
TEXT
8
GRID_TEXT
10
3490
20
-500
30
0
40
90
1
X_ROOM3_R

0
LINE
8
GRID
10
6120
20
-250
30
0
11
6120
21
9400
31
0

0
TEXT
8
GRID_TEXT
10
6150
20
-500
30
0
40
90
1
X_BATH6_R

0
LINE
8
GRID
10
4840
20
-250
30
0
11
4840
21
9400
31
0

0
TEXT
8
GRID_TEXT
10
4870
20
-500
30
0
40
90
1
X_ROOM4_R

0
LINE
8
GRID
10
-250
20
0
30
0
11
13950
21
0
31
0

0
TEXT
8
GRID_TEXT
10
-900
20
30
30
0
40
90
1
Y0

0
LINE
8
GRID
10
-250
20
3140
30
0
11
13950
21
3140
31
0

0
TEXT
8
GRID_TEXT
10
-900
20
3170
30
0
40
90
1
Y_KITCHEN_TOP

0
LINE
8
GRID
10
-250
20
6140
30
0
11
13950
21
6140
31
0

0
TEXT
8
GRID_TEXT
10
-900
20
6170
30
0
40
90
1
Y_ROOM4_TOP

0
LINE
8
GRID
10
-250
20
9140
30
0
11
13950
21
9140
31
0

0
TEXT
8
GRID_TEXT
10
-900
20
9170
30
0
40
90
1
Y_ROOM3_TOP

0
LINE
8
GRID
10
-250
20
7240
30
0
11
13950
21
7240
31
0

0
TEXT
8
GRID_TEXT
10
-900
20
7270
30
0
40
90
1
Y_BATH6_BOTTOM

0
LINE
8
GRID
10
-250
20
3250
30
0
11
13950
21
3250
31
0

0
TEXT
8
GRID_TEXT
10
-900
20
3280
30
0
40
90
1
Y_LIVING_TOP

0
LINE
8
GRID
10
-250
20
2200
30
0
11
13950
21
2200
31
0

0
TEXT
8
GRID_TEXT
10
-900
20
2230
30
0
40
90
1
Y_BATH7_TOP

0
LINE
8
GRID
10
-250
20
2640
30
0
11
13950
21
2640
31
0

0
TEXT
8
GRID_TEXT
10
-900
20
2670
30
0
40
90
1
Y_BALCONY_TOP

0
ENDSEC
0
EOF